<svg width="175" height="175" viewBox="0 0 175 175" fill="none" xmlns="http://www.w3.org/2000/svg">
<path d="M25.5554 131.799C20.784 130.452 17.1852 128.228 14.7591 125.128C12.3599 122.054 11.1603 117.984 11.1603 112.916V104.869C11.1603 98.3187 8.30282 95.0434 2.58789 95.0434V89.1802C8.30282 89.1802 11.1603 85.9184 11.1603 79.3947V70.9841C11.2142 66.0509 12.4138 62.0747 14.7591 59.0555C17.1313 56.0093 20.7301 53.7989 25.5554 52.424L27.092 57.0742C21.4579 58.8803 18.6409 63.5843 18.6409 71.1862V79.3543C18.6409 85.4736 16.39 89.7328 11.8881 92.132C16.39 94.5581 18.6409 98.8578 18.6409 105.031V113.361C18.7218 120.774 21.5388 125.37 27.092 127.149L25.5554 131.799Z" fill="black"/>
<path d="M32.4295 94.7199C32.4295 87.8728 33.9391 82.4544 36.9583 78.4647C40.0045 74.4481 44.1289 72.4398 49.3317 72.4398C55.2892 72.4398 59.818 74.812 62.9181 79.5565L63.1607 73.2485H67.6895V116.11C67.6895 121.744 66.1125 126.206 62.9585 129.495C59.8045 132.783 55.5318 134.428 50.1404 134.428C47.0942 134.428 44.1828 133.74 41.4062 132.366C38.6566 131.018 36.4866 129.212 34.8961 126.947L37.6053 124.036C41.0288 128.241 45.0994 130.344 49.8169 130.344C53.8605 130.344 57.0145 129.144 59.2789 126.745C61.5433 124.373 62.7159 121.071 62.7968 116.838V111.339C59.6967 115.652 55.1814 117.809 49.2508 117.809C44.1828 117.809 40.1123 115.787 37.0392 111.743C33.9661 107.7 32.4295 102.241 32.4295 95.3669V94.7199ZM37.3222 95.569C37.3222 101.149 38.441 105.557 40.6784 108.792C42.9159 111.999 46.0698 113.603 50.1404 113.603C56.0979 113.603 60.3167 110.935 62.7968 105.597V85.2579C61.6646 82.4544 60.0337 80.3247 57.9041 78.869C55.7744 77.3864 53.2135 76.6451 50.2213 76.6451C46.1507 76.6451 42.9832 78.249 40.7188 81.4569C38.4544 84.6379 37.3222 89.3419 37.3222 95.569Z" fill="black"/>
<path d="M95.105 58.1255L110.228 100.826L125.27 58.1255H141.202V117H129.031V100.907L130.244 73.1272L114.352 117H106.023L90.1718 73.1676L91.3849 100.907V117H79.2542V58.1255H95.105Z" fill="black"/>
<path d="M147.308 127.149C152.78 125.397 155.61 120.936 155.799 113.765V104.869C155.799 98.6422 158.239 94.3964 163.118 92.132C158.239 89.9215 155.799 85.6757 155.799 79.3947V71.1862C155.799 63.5843 152.982 58.8803 147.348 57.0742L148.885 52.424C153.656 53.7719 157.241 55.9689 159.641 59.0151C162.04 62.0343 163.253 66.0374 163.28 71.0245V79.516C163.28 85.9588 166.137 89.1802 171.852 89.1802V95.0434C166.137 95.0434 163.28 98.3187 163.28 104.869V113.037C163.28 118.105 162.053 122.162 159.6 125.208C157.174 128.255 153.602 130.452 148.885 131.799L147.308 127.149Z" fill="black"/>
</svg>
