<svg width="202" height="36" viewBox="0 0 202 36" fill="none" xmlns="http://www.w3.org/2000/svg">
<path d="M9.84858 34.8462C7.80257 34.2544 6.2594 33.2781 5.21906 31.9172C4.19027 30.568 3.67588 28.7811 3.67588 26.5562V23.0237C3.67588 20.1479 2.45059 18.7101 0 18.7101V16.1361C2.45059 16.1361 3.67588 14.7041 3.67588 11.8402V8.14793C3.699 5.98225 4.21339 4.23669 5.21906 2.91124C6.23628 1.57396 7.77946 0.60355 9.84858 0L10.5075 2.04142C8.09156 2.83432 6.88361 4.89941 6.88361 8.23669V11.8225C6.88361 14.5089 5.9184 16.3787 3.98798 17.432C5.9184 18.497 6.88361 20.3846 6.88361 23.0947V26.7515C6.91828 30.0059 8.12624 32.0237 10.5075 32.8047L9.84858 34.8462Z" fill="#FFF500"/>
<path d="M12.7962 18.568C12.7962 15.5621 13.4435 13.1834 14.7382 11.432C16.0444 9.66864 17.813 8.78698 20.0439 8.78698C22.5986 8.78698 24.5405 9.8284 25.8699 11.9112L25.9739 9.14201H27.9159V27.9586C27.9159 30.432 27.2397 32.3905 25.8872 33.8343C24.5348 35.2781 22.7026 36 20.3907 36C19.0845 36 17.8361 35.6982 16.6455 35.0947C15.4664 34.503 14.5359 33.7101 13.8539 32.716L15.0156 31.4379C16.4837 33.284 18.2291 34.2071 20.252 34.2071C21.9859 34.2071 23.3384 33.6805 24.3094 32.6272C25.2803 31.5858 25.7832 30.1361 25.8179 28.2781V25.8639C24.4885 27.7574 22.5523 28.7041 20.0093 28.7041C17.8361 28.7041 16.0906 27.8166 14.7729 26.0414C13.4551 24.2663 12.7962 21.8698 12.7962 18.8521V18.568ZM14.8942 18.9408C14.8942 21.3905 15.374 23.3254 16.3334 24.7456C17.2928 26.1538 18.6453 26.858 20.3907 26.858C22.9454 26.858 24.7544 25.6864 25.8179 23.3432V14.4142C25.3324 13.1834 24.633 12.2485 23.7198 11.6095C22.8066 10.9586 21.7085 10.6331 20.4254 10.6331C18.6799 10.6331 17.3217 11.3373 16.3507 12.7456C15.3797 14.142 14.8942 16.2071 14.8942 18.9408Z" fill="#FFF500"/>
<path d="M40.5907 28.7041C38.9955 28.7041 37.5506 28.3018 36.256 27.497C34.9729 26.6923 33.973 25.574 33.2563 24.142C32.5396 22.6982 32.1813 21.0828 32.1813 19.2959V18.5325C32.1813 16.6864 32.5281 15.0237 33.2216 13.5444C33.9268 12.0651 34.9035 10.9053 36.1519 10.0651C37.4003 9.21302 38.7528 8.78698 40.2093 8.78698C42.4865 8.78698 44.2897 9.5858 45.6191 11.1834C46.9599 12.7692 47.6304 14.9408 47.6304 17.6982V18.8876H34.2446V19.2959C34.2446 21.4734 34.8515 23.2899 36.0652 24.7456C37.2905 26.1893 38.8279 26.9112 40.6774 26.9112C41.7871 26.9112 42.7639 26.7041 43.6077 26.2899C44.4631 25.8757 45.2376 25.213 45.9312 24.3018L47.2316 25.3136C45.7058 27.574 43.4921 28.7041 40.5907 28.7041ZM40.2093 10.5976C38.6488 10.5976 37.331 11.1834 36.256 12.355C35.1925 13.5266 34.5452 15.1006 34.314 17.0769H45.567V16.8462C45.5092 15 44.9948 13.497 44.0239 12.3373C43.0529 11.1775 41.7813 10.5976 40.2093 10.5976Z" fill="#FFF500"/>
<path d="M50.526 18.4615C50.526 16.6154 50.8728 14.9527 51.5663 13.4734C52.2715 11.9941 53.2598 10.8462 54.5313 10.0296C55.8144 9.20118 57.2651 8.78698 58.8834 8.78698C61.3803 8.78698 63.4031 9.68639 64.9521 11.4852C66.5011 13.2722 67.2755 15.645 67.2755 18.6035V19.0473C67.2755 20.9053 66.923 22.5799 66.2179 24.071C65.5243 25.5503 64.5417 26.6923 63.2702 27.497C61.9987 28.3018 60.548 28.7041 58.9181 28.7041C56.4328 28.7041 54.41 27.8106 52.8494 26.0237C51.3005 24.2249 50.526 21.8462 50.526 18.8876V18.4615ZM52.6067 19.0473C52.6067 21.3432 53.1847 23.2308 54.3406 24.7101C55.5081 26.1775 57.0339 26.9112 58.9181 26.9112C60.7907 26.9112 62.305 26.1775 63.4609 24.7101C64.6284 23.2308 65.2122 21.284 65.2122 18.8698V18.4615C65.2122 16.9941 64.9463 15.6509 64.4146 14.432C63.8829 13.213 63.1373 12.2722 62.1779 11.6095C61.2184 10.9349 60.1203 10.5976 58.8834 10.5976C57.0339 10.5976 55.5254 11.3432 54.3579 12.8343C53.1904 14.3136 52.6067 16.2544 52.6067 18.6568V19.0473Z" fill="#FFF500"/>
<path d="M77.9217 2.50296L84.4065 21.2485L90.8566 2.50296H97.6882V28.3491H92.4692V21.284L92.9894 9.08876L86.1751 28.3491H82.6033L75.8063 9.10651L76.3265 21.284V28.3491H71.1248V2.50296H77.9217Z" fill="#FFF500"/>
<path d="M110.536 28.7041C107.785 28.7041 105.543 27.8402 103.809 26.1124C102.087 24.3846 101.225 22.0828 101.225 19.2071V18.7101C101.225 16.7811 101.59 15.0592 102.318 13.5444C103.046 12.0178 104.075 10.8462 105.404 10.0296C106.745 9.20118 108.271 8.78698 109.982 8.78698C112.548 8.78698 114.565 9.61538 116.033 11.2722C117.513 12.929 118.252 15.2781 118.252 18.3195V20.4142H106.306C106.468 21.6686 106.953 22.6746 107.762 23.432C108.583 24.1893 109.618 24.568 110.866 24.568C112.796 24.568 114.305 23.8521 115.391 22.4201L117.854 25.2426C117.102 26.3314 116.085 27.1834 114.802 27.7988C113.519 28.4024 112.097 28.7041 110.536 28.7041ZM109.964 12.9408C108.97 12.9408 108.161 13.284 107.537 13.9704C106.924 14.6568 106.531 15.6391 106.358 16.9172H113.328V16.5089C113.305 15.3728 113.004 14.497 112.426 13.8817C111.848 13.2544 111.028 12.9408 109.964 12.9408Z" fill="#FFF500"/>
<path d="M127.113 4.42012V9.14201H130.32V12.9053H127.113V22.4911C127.113 23.2012 127.246 23.7101 127.511 24.0178C127.777 24.3254 128.286 24.4793 129.037 24.4793C129.592 24.4793 130.083 24.4379 130.511 24.355V28.2426C129.529 28.5503 128.517 28.7041 127.477 28.7041C123.963 28.7041 122.171 26.8876 122.102 23.2544V12.9053H119.362V9.14201H122.102V4.42012H127.113Z" fill="#FFF500"/>
<path d="M143.654 13.9527C142.972 13.858 142.371 13.8107 141.851 13.8107C139.955 13.8107 138.712 14.4675 138.123 15.7811V28.3491H133.112V9.14201H137.845L137.984 11.432C138.99 9.66864 140.383 8.78698 142.163 8.78698C142.718 8.78698 143.238 8.86391 143.723 9.01775L143.654 13.9527Z" fill="#FFF500"/>
<path d="M151.37 28.3491H146.342V9.14201H151.37V28.3491ZM146.047 4.1716C146.047 3.40237 146.295 2.76923 146.792 2.27219C147.301 1.77515 147.989 1.52663 148.856 1.52663C149.711 1.52663 150.393 1.77515 150.902 2.27219C151.41 2.76923 151.665 3.40237 151.665 4.1716C151.665 4.95266 151.405 5.59172 150.884 6.08876C150.376 6.5858 149.7 6.83432 148.856 6.83432C148.012 6.83432 147.33 6.5858 146.81 6.08876C146.301 5.59172 146.047 4.95266 146.047 4.1716Z" fill="#FFF500"/>
<path d="M163.317 24.568C164.241 24.568 164.993 24.3077 165.571 23.787C166.149 23.2663 166.449 22.574 166.472 21.7101H171.171C171.16 23.0118 170.813 24.2071 170.131 25.2959C169.449 26.3728 168.512 27.213 167.322 27.8166C166.143 28.4083 164.837 28.7041 163.403 28.7041C160.721 28.7041 158.606 27.8343 157.057 26.0947C155.508 24.3432 154.734 21.929 154.734 18.8521V18.5148C154.734 15.5562 155.502 13.1953 157.04 11.432C158.577 9.66864 160.687 8.78698 163.369 8.78698C165.715 8.78698 167.594 9.47337 169.004 10.8462C170.426 12.2071 171.148 14.0237 171.171 16.2959H166.472C166.449 15.3018 166.149 14.497 165.571 13.8817C164.993 13.2544 164.23 12.9408 163.282 12.9408C162.114 12.9408 161.23 13.3787 160.629 14.2544C160.039 15.1183 159.745 16.5266 159.745 18.4793V19.0118C159.745 20.9882 160.039 22.4083 160.629 23.2722C161.219 24.1361 162.114 24.568 163.317 24.568Z" fill="#FFF500"/>
<path d="M184.904 28.3491C184.672 27.8876 184.505 27.3136 184.401 26.6272C183.187 28.0118 181.609 28.7041 179.667 28.7041C177.829 28.7041 176.304 28.1598 175.09 27.071C173.888 25.9823 173.287 24.6095 173.287 22.9527C173.287 20.9172 174.021 19.355 175.489 18.2663C176.968 17.1775 179.101 16.6272 181.887 16.6154H184.193V15.5148C184.193 14.6272 183.967 13.9172 183.517 13.3846C183.077 12.8521 182.378 12.5858 181.419 12.5858C180.575 12.5858 179.91 12.7929 179.425 13.2071C178.951 13.6213 178.714 14.1893 178.714 14.9112H173.703C173.703 13.7988 174.038 12.7692 174.708 11.8225C175.379 10.8757 176.327 10.1361 177.552 9.60355C178.777 9.05917 180.153 8.78698 181.679 8.78698C183.99 8.78698 185.823 9.38462 187.175 10.5799C188.539 11.7633 189.221 13.432 189.221 15.5858V23.9112C189.233 25.7337 189.481 27.1124 189.967 28.0473V28.3491H184.904ZM180.76 24.7811C181.499 24.7811 182.181 24.6154 182.806 24.284C183.43 23.9408 183.892 23.4852 184.193 22.9172V19.6154H182.32C179.812 19.6154 178.477 20.503 178.315 22.2781L178.297 22.5799C178.297 23.2189 178.517 23.7456 178.956 24.1598C179.396 24.574 179.997 24.7811 180.76 24.7811Z" fill="#FFF500"/>
<path d="M191.475 32.8047C193.822 32.0355 195.035 30.0769 195.116 26.929V23.0237C195.116 20.2899 196.163 18.426 198.255 17.432C196.163 16.4615 195.116 14.5976 195.116 11.8402V8.23669C195.116 4.89941 193.908 2.83432 191.493 2.04142L192.151 0C194.197 0.591716 195.735 1.55621 196.764 2.89349C197.792 4.21893 198.313 5.97633 198.324 8.16568V11.8935C198.324 14.7219 199.549 16.1361 202 16.1361V18.7101C199.549 18.7101 198.324 20.1479 198.324 23.0237V26.6095C198.324 28.8343 197.798 30.6154 196.746 31.9527C195.706 33.2899 194.174 34.2544 192.151 34.8462L191.475 32.8047Z" fill="#FFF500"/>
</svg>
